<svg width="96" height="96" viewBox="0 0 480 480" fill="none" xmlns="http://www.w3.org/2000/svg">
<g filter="url(#filter0_d_1_23)">
<mask id="path-1-outside-1_1_23" maskUnits="userSpaceOnUse" x="32" y="99" width="209" height="309" fill="black">
<rect fill="white" x="32" y="99" width="209" height="309"/>
<path d="M121.2 406.4C91.0667 406.4 68.9333 398.8 54.8 383.6C40.6667 368.4 33.6 343.2 33.6 308C33.6 280 38.2667 249.867 47.6 217.6C57.2 185.333 72.4 157.733 93.2 134.8C114.267 111.6 140.933 100 173.2 100C193.2 100 209.333 104.4 221.6 113.2C233.867 122 240 135.467 240 153.6C240 165.067 237.733 174.133 233.2 180.8C228.667 187.2 221.6 190.4 212 190.4C202.4 190.4 194.8 186.933 189.2 180C194 177.6 198.267 172.8 202 165.6C205.733 158.4 207.6 150.933 207.6 143.2C207.6 136 205.6 130.133 201.6 125.6C197.867 121.067 191.733 118.8 183.2 118.8C169.067 118.8 155.6 128.533 142.8 148C130 167.2 119.6 191.467 111.6 220.8C103.867 250.133 100 278.4 100 305.6C100 325.867 103.467 341.333 110.4 352C117.333 362.667 129.867 368 148 368C163.733 368 178.267 364.533 191.6 357.6C204.933 350.667 216.4 340.8 226 328L235.2 332C228.533 348.8 218.667 362.8 205.6 374C192.533 385.2 178.533 393.467 163.6 398.8C148.667 403.867 134.533 406.4 121.2 406.4Z"/>
</mask>
<path d="M121.2 406.4C91.0667 406.4 68.9333 398.8 54.8 383.6C40.6667 368.4 33.6 343.2 33.6 308C33.6 280 38.2667 249.867 47.6 217.6C57.2 185.333 72.4 157.733 93.2 134.8C114.267 111.6 140.933 100 173.2 100C193.2 100 209.333 104.4 221.6 113.2C233.867 122 240 135.467 240 153.6C240 165.067 237.733 174.133 233.2 180.8C228.667 187.2 221.6 190.4 212 190.4C202.4 190.4 194.8 186.933 189.2 180C194 177.6 198.267 172.8 202 165.6C205.733 158.4 207.6 150.933 207.6 143.2C207.6 136 205.6 130.133 201.6 125.6C197.867 121.067 191.733 118.8 183.2 118.8C169.067 118.8 155.6 128.533 142.8 148C130 167.2 119.6 191.467 111.6 220.8C103.867 250.133 100 278.4 100 305.6C100 325.867 103.467 341.333 110.4 352C117.333 362.667 129.867 368 148 368C163.733 368 178.267 364.533 191.6 357.6C204.933 350.667 216.4 340.8 226 328L235.2 332C228.533 348.8 218.667 362.8 205.6 374C192.533 385.2 178.533 393.467 163.6 398.8C148.667 403.867 134.533 406.4 121.2 406.4Z" fill="black"/>
<path d="M54.8 383.6L55.5323 382.919L55.5323 382.919L54.8 383.6ZM47.6 217.6L46.6415 217.315L46.6394 217.322L47.6 217.6ZM93.2 134.8L92.4597 134.128L92.4593 134.128L93.2 134.8ZM221.6 113.2L221.017 114.013L221.017 114.013L221.6 113.2ZM233.2 180.8L234.016 181.378L234.022 181.37L234.027 181.362L233.2 180.8ZM189.2 180L188.753 179.106L187.641 179.661L188.422 180.628L189.2 180ZM201.6 125.6L200.828 126.236L200.839 126.249L200.85 126.262L201.6 125.6ZM142.8 148L143.632 148.555L143.636 148.549L142.8 148ZM111.6 220.8L110.635 220.537L110.633 220.545L111.6 220.8ZM110.4 352L109.562 352.545L109.562 352.545L110.4 352ZM191.6 357.6L192.061 358.487L192.061 358.487L191.6 357.6ZM226 328L226.399 327.083L225.674 326.768L225.2 327.4L226 328ZM235.2 332L236.129 332.369L236.487 331.469L235.599 331.083L235.2 332ZM205.6 374L206.251 374.759L206.251 374.759L205.6 374ZM163.6 398.8L163.921 399.747L163.929 399.744L163.936 399.742L163.6 398.8ZM121.2 406.4V405.4C91.2174 405.4 69.4045 397.838 55.5323 382.919L54.8 383.6L54.0677 384.281C68.4622 399.762 90.9159 407.4 121.2 407.4V406.4ZM54.8 383.6L55.5323 382.919C41.6568 367.996 34.6 343.111 34.6 308H33.6H32.6C32.6 343.289 39.6765 368.804 54.0677 384.281L54.8 383.6ZM33.6 308H34.6C34.6 280.111 39.2484 250.072 48.5606 217.878L47.6 217.6L46.6394 217.322C37.285 249.662 32.6 279.889 32.6 308H33.6ZM47.6 217.6L48.5585 217.885C58.1196 185.749 73.2499 158.285 93.9407 135.472L93.2 134.8L92.4593 134.128C71.5501 157.182 56.2804 184.917 46.6415 217.315L47.6 217.6ZM93.2 134.8L93.9403 135.472C114.811 112.488 141.206 101 173.2 101V100V99C140.661 99 113.722 110.712 92.4597 134.128L93.2 134.8ZM173.2 100V101C193.058 101 208.968 105.369 221.017 114.013L221.6 113.2L222.183 112.387C209.699 103.431 193.342 99 173.2 99V100ZM221.6 113.2L221.017 114.013C232.967 122.586 239 135.715 239 153.6H240H241C241 135.218 234.766 121.414 222.183 112.387L221.6 113.2ZM240 153.6H239C239 164.947 236.755 173.793 232.373 180.238L233.2 180.8L234.027 181.362C238.711 174.473 241 165.186 241 153.6H240ZM233.2 180.8L232.384 180.222C228.081 186.297 221.358 189.4 212 189.4V190.4V191.4C221.842 191.4 229.252 188.103 234.016 181.378L233.2 180.8ZM212 190.4V189.4C202.675 189.4 195.372 186.05 189.978 179.372L189.2 180L188.422 180.628C194.228 187.817 202.125 191.4 212 191.4V190.4ZM189.2 180L189.647 180.894C194.711 178.363 199.104 173.357 202.888 166.06L202 165.6L201.112 165.14C197.429 172.243 193.289 176.837 188.753 179.106L189.2 180ZM202 165.6L202.888 166.06C206.691 158.725 208.6 151.101 208.6 143.2H207.6H206.6C206.6 150.765 204.776 158.075 201.112 165.14L202 165.6ZM207.6 143.2H208.6C208.6 135.805 206.541 129.688 202.35 124.938L201.6 125.6L200.85 126.262C204.659 130.579 206.6 136.195 206.6 143.2H207.6ZM201.6 125.6L202.372 124.964C198.375 120.111 191.892 117.8 183.2 117.8V118.8V119.8C191.574 119.8 197.359 122.023 200.828 126.236L201.6 125.6ZM183.2 118.8V117.8C168.556 117.8 154.827 127.889 141.964 147.451L142.8 148L143.636 148.549C156.373 129.178 169.577 119.8 183.2 119.8V118.8ZM142.8 148L141.968 147.445C129.093 166.758 118.655 191.131 110.635 220.537L111.6 220.8L112.565 221.063C120.545 191.803 130.907 167.642 143.632 148.555L142.8 148ZM111.6 220.8L110.633 220.545C102.88 249.952 99 278.305 99 305.6H100H101C101 278.495 104.853 250.314 112.567 221.055L111.6 220.8ZM100 305.6H99C99 325.955 102.477 341.646 109.562 352.545L110.4 352L111.238 351.455C104.456 341.02 101 325.778 101 305.6H100ZM110.4 352L109.562 352.545C116.751 363.605 129.685 369 148 369V368V367C130.049 367 117.916 361.728 111.238 351.455L110.4 352ZM148 368V369C163.886 369 178.579 365.498 192.061 358.487L191.6 357.6L191.139 356.713C177.955 363.569 163.581 367 148 367V368ZM191.6 357.6L192.061 358.487C205.536 351.48 217.116 341.512 226.8 328.6L226 328L225.2 327.4C215.684 340.088 204.33 349.853 191.139 356.713L191.6 357.6ZM226 328L225.601 328.917L234.801 332.917L235.2 332L235.599 331.083L226.399 327.083L226 328ZM235.2 332L234.271 331.631C227.661 348.288 217.886 362.152 204.949 373.241L205.6 374L206.251 374.759C219.447 363.448 229.406 349.312 236.129 332.369L235.2 332ZM205.6 374L204.949 373.241C191.967 384.368 178.072 392.569 163.264 397.858L163.6 398.8L163.936 399.742C178.994 394.364 193.099 386.032 206.251 374.759L205.6 374ZM163.6 398.8L163.279 397.853C148.43 402.891 134.406 405.4 121.2 405.4V406.4V407.4C134.66 407.4 148.903 404.843 163.921 399.747L163.6 398.8Z" fill="black" mask="url(#path-1-outside-1_1_23)"/>
</g>
<g filter="url(#filter1_d_1_23)">
<mask id="path-3-outside-2_1_23" maskUnits="userSpaceOnUse" x="42" y="99" width="209" height="309" fill="black">
<rect fill="white" x="42" y="99" width="209" height="309"/>
<path d="M131.2 406.4C101.067 406.4 78.9333 398.8 64.8 383.6C50.6667 368.4 43.6 343.2 43.6 308C43.6 280 48.2667 249.867 57.6 217.6C67.2 185.333 82.4 157.733 103.2 134.8C124.267 111.6 150.933 100 183.2 100C203.2 100 219.333 104.4 231.6 113.2C243.867 122 250 135.467 250 153.6C250 165.067 247.733 174.133 243.2 180.8C238.667 187.2 231.6 190.4 222 190.4C212.4 190.4 204.8 186.933 199.2 180C204 177.6 208.267 172.8 212 165.6C215.733 158.4 217.6 150.933 217.6 143.2C217.6 136 215.6 130.133 211.6 125.6C207.867 121.067 201.733 118.8 193.2 118.8C179.067 118.8 165.6 128.533 152.8 148C140 167.2 129.6 191.467 121.6 220.8C113.867 250.133 110 278.4 110 305.6C110 325.867 113.467 341.333 120.4 352C127.333 362.667 139.867 368 158 368C173.733 368 188.267 364.533 201.6 357.6C214.933 350.667 226.4 340.8 236 328L245.2 332C238.533 348.8 228.667 362.8 215.6 374C202.533 385.2 188.533 393.467 173.6 398.8C158.667 403.867 144.533 406.4 131.2 406.4Z"/>
</mask>
<path d="M131.2 406.4C101.067 406.4 78.9333 398.8 64.8 383.6C50.6667 368.4 43.6 343.2 43.6 308C43.6 280 48.2667 249.867 57.6 217.6C67.2 185.333 82.4 157.733 103.2 134.8C124.267 111.6 150.933 100 183.2 100C203.2 100 219.333 104.4 231.6 113.2C243.867 122 250 135.467 250 153.6C250 165.067 247.733 174.133 243.2 180.8C238.667 187.2 231.6 190.4 222 190.4C212.4 190.4 204.8 186.933 199.2 180C204 177.6 208.267 172.8 212 165.6C215.733 158.4 217.6 150.933 217.6 143.2C217.6 136 215.6 130.133 211.6 125.6C207.867 121.067 201.733 118.8 193.2 118.8C179.067 118.8 165.6 128.533 152.8 148C140 167.2 129.6 191.467 121.6 220.8C113.867 250.133 110 278.4 110 305.6C110 325.867 113.467 341.333 120.4 352C127.333 362.667 139.867 368 158 368C173.733 368 188.267 364.533 201.6 357.6C214.933 350.667 226.4 340.8 236 328L245.2 332C238.533 348.8 228.667 362.8 215.6 374C202.533 385.2 188.533 393.467 173.6 398.8C158.667 403.867 144.533 406.4 131.2 406.4Z" fill="#487FFA"/>
<path d="M64.8 383.6L65.5323 382.919L65.5323 382.919L64.8 383.6ZM57.6 217.6L56.6415 217.315L56.6394 217.322L57.6 217.6ZM103.2 134.8L102.46 134.128L102.459 134.128L103.2 134.8ZM231.6 113.2L231.017 114.013L231.017 114.013L231.6 113.2ZM243.2 180.8L244.016 181.378L244.022 181.37L244.027 181.362L243.2 180.8ZM199.2 180L198.753 179.106L197.641 179.661L198.422 180.628L199.2 180ZM211.6 125.6L210.828 126.236L210.839 126.249L210.85 126.262L211.6 125.6ZM152.8 148L153.632 148.555L153.636 148.549L152.8 148ZM121.6 220.8L120.635 220.537L120.633 220.545L121.6 220.8ZM120.4 352L119.562 352.545L119.562 352.545L120.4 352ZM201.6 357.6L202.061 358.487L202.061 358.487L201.6 357.6ZM236 328L236.399 327.083L235.674 326.768L235.2 327.4L236 328ZM245.2 332L246.129 332.369L246.487 331.469L245.599 331.083L245.2 332ZM215.6 374L216.251 374.759L216.251 374.759L215.6 374ZM173.6 398.8L173.921 399.747L173.929 399.744L173.936 399.742L173.6 398.8ZM131.2 406.4V405.4C101.217 405.4 79.4045 397.838 65.5323 382.919L64.8 383.6L64.0677 384.281C78.4622 399.762 100.916 407.4 131.2 407.4V406.4ZM64.8 383.6L65.5323 382.919C51.6568 367.996 44.6 343.111 44.6 308H43.6H42.6C42.6 343.289 49.6765 368.804 64.0677 384.281L64.8 383.6ZM43.6 308H44.6C44.6 280.111 49.2484 250.072 58.5606 217.878L57.6 217.6L56.6394 217.322C47.285 249.662 42.6 279.889 42.6 308H43.6ZM57.6 217.6L58.5585 217.885C68.1196 185.749 83.2499 158.285 103.941 135.472L103.2 134.8L102.459 134.128C81.5501 157.182 66.2804 184.917 56.6415 217.315L57.6 217.6ZM103.2 134.8L103.94 135.472C124.811 112.488 151.206 101 183.2 101V100V99C150.661 99 123.722 110.712 102.46 134.128L103.2 134.8ZM183.2 100V101C203.058 101 218.968 105.369 231.017 114.013L231.6 113.2L232.183 112.387C219.699 103.431 203.342 99 183.2 99V100ZM231.6 113.2L231.017 114.013C242.967 122.586 249 135.715 249 153.6H250H251C251 135.218 244.766 121.414 232.183 112.387L231.6 113.2ZM250 153.6H249C249 164.947 246.755 173.793 242.373 180.238L243.2 180.8L244.027 181.362C248.711 174.473 251 165.186 251 153.6H250ZM243.2 180.8L242.384 180.222C238.081 186.297 231.358 189.4 222 189.4V190.4V191.4C231.842 191.4 239.252 188.103 244.016 181.378L243.2 180.8ZM222 190.4V189.4C212.675 189.4 205.372 186.05 199.978 179.372L199.2 180L198.422 180.628C204.228 187.817 212.125 191.4 222 191.4V190.4ZM199.2 180L199.647 180.894C204.711 178.363 209.104 173.357 212.888 166.06L212 165.6L211.112 165.14C207.429 172.243 203.289 176.837 198.753 179.106L199.2 180ZM212 165.6L212.888 166.06C216.691 158.725 218.6 151.101 218.6 143.2H217.6H216.6C216.6 150.765 214.776 158.075 211.112 165.14L212 165.6ZM217.6 143.2H218.6C218.6 135.805 216.541 129.688 212.35 124.938L211.6 125.6L210.85 126.262C214.659 130.579 216.6 136.195 216.6 143.2H217.6ZM211.6 125.6L212.372 124.964C208.375 120.111 201.892 117.8 193.2 117.8V118.8V119.8C201.574 119.8 207.359 122.023 210.828 126.236L211.6 125.6ZM193.2 118.8V117.8C178.556 117.8 164.827 127.889 151.964 147.451L152.8 148L153.636 148.549C166.373 129.178 179.577 119.8 193.2 119.8V118.8ZM152.8 148L151.968 147.445C139.093 166.758 128.655 191.131 120.635 220.537L121.6 220.8L122.565 221.063C130.545 191.803 140.907 167.642 153.632 148.555L152.8 148ZM121.6 220.8L120.633 220.545C112.88 249.952 109 278.305 109 305.6H110H111C111 278.495 114.853 250.314 122.567 221.055L121.6 220.8ZM110 305.6H109C109 325.955 112.477 341.646 119.562 352.545L120.4 352L121.238 351.455C114.456 341.02 111 325.778 111 305.6H110ZM120.4 352L119.562 352.545C126.751 363.605 139.685 369 158 369V368V367C140.049 367 127.916 361.728 121.238 351.455L120.4 352ZM158 368V369C173.886 369 188.579 365.498 202.061 358.487L201.6 357.6L201.139 356.713C187.955 363.569 173.581 367 158 367V368ZM201.6 357.6L202.061 358.487C215.536 351.48 227.116 341.512 236.8 328.6L236 328L235.2 327.4C225.684 340.088 214.33 349.853 201.139 356.713L201.6 357.6ZM236 328L235.601 328.917L244.801 332.917L245.2 332L245.599 331.083L236.399 327.083L236 328ZM245.2 332L244.271 331.631C237.661 348.288 227.886 362.152 214.949 373.241L215.6 374L216.251 374.759C229.447 363.448 239.406 349.312 246.129 332.369L245.2 332ZM215.6 374L214.949 373.241C201.967 384.368 188.072 392.569 173.264 397.858L173.6 398.8L173.936 399.742C188.994 394.364 203.099 386.032 216.251 374.759L215.6 374ZM173.6 398.8L173.279 397.853C158.43 402.891 144.406 405.4 131.2 405.4V406.4V407.4C144.66 407.4 158.903 404.843 173.921 399.747L173.6 398.8Z" fill="black" mask="url(#path-3-outside-2_1_23)"/>
</g>
<path d="M328 465.2C311.2 465.2 296.4 462.267 283.6 456.4C270.8 450.533 260.933 442.4 254 432C247.067 421.333 243.6 409.067 243.6 395.2C243.6 383.467 246 372.8 250.8 363.2C255.867 353.6 262.533 346 270.8 340.4C279.333 334.8 288.667 332 298.8 332C308.133 332 316 334.4 322.4 339.2C328.8 343.733 332.8 350.133 334.4 358.4C320.533 358.4 309.467 362.133 301.2 369.6C292.933 376.8 288.8 386.667 288.8 399.2C288.8 410.667 292.267 419.867 299.2 426.8C306.133 433.733 315.333 437.2 326.8 437.2C340.933 437.2 352.533 432.533 361.6 423.2C370.933 413.6 375.6 401.6 375.6 387.2C375.6 374.667 372.133 362.8 365.2 351.6C358.267 340.4 347.867 326.8 334 310.8C319.6 294.267 308.667 280.133 301.2 268.4C294 256.4 290.4 243.333 290.4 229.2C290.4 215.333 294.267 202.933 302 192C309.733 180.8 320.4 172 334 165.6C347.6 159.2 362.933 156 380 156C401.6 156 418.8 161.067 431.6 171.2C444.667 181.333 451.2 194.933 451.2 212C451.2 223.2 448.4 232.267 442.8 239.2C437.2 246.133 429.867 249.6 420.8 249.6C410.667 249.6 402.533 245.467 396.4 237.2C401.467 233.467 405.467 228.533 408.4 222.4C411.333 216.267 412.8 209.867 412.8 203.2C412.8 194.667 410.267 187.867 405.2 182.8C400.133 177.733 393.2 175.2 384.4 175.2C373.733 175.2 364.933 179.067 358 186.8C351.333 194.267 348 203.867 348 215.6C348 226.267 351.067 236.267 357.2 245.6C363.333 254.667 372.933 266.4 386 280.8C396.667 292.267 405.2 302.133 411.6 310.4C418.267 318.667 423.867 328.267 428.4 339.2C433.2 349.867 435.6 361.467 435.6 374C435.6 391.067 430.8 406.533 421.2 420.4C411.867 434.267 398.933 445.2 382.4 453.2C366.133 461.2 348 465.2 328 465.2Z" fill="black"/>
<g filter="url(#filter2_d_1_23)">
<mask id="path-6-outside-3_1_23" maskUnits="userSpaceOnUse" x="252" y="165" width="211" height="312" fill="black">
<rect fill="white" x="252" y="165" width="211" height="312"/>
<path d="M338 475.2C321.2 475.2 306.4 472.267 293.6 466.4C280.8 460.533 270.933 452.4 264 442C257.067 431.333 253.6 419.067 253.6 405.2C253.6 393.467 256 382.8 260.8 373.2C265.867 363.6 272.533 356 280.8 350.4C289.333 344.8 298.667 342 308.8 342C318.133 342 326 344.4 332.4 349.2C338.8 353.733 342.8 360.133 344.4 368.4C330.533 368.4 319.467 372.133 311.2 379.6C302.933 386.8 298.8 396.667 298.8 409.2C298.8 420.667 302.267 429.867 309.2 436.8C316.133 443.733 325.333 447.2 336.8 447.2C350.933 447.2 362.533 442.533 371.6 433.2C380.933 423.6 385.6 411.6 385.6 397.2C385.6 384.667 382.133 372.8 375.2 361.6C368.267 350.4 357.867 336.8 344 320.8C329.6 304.267 318.667 290.133 311.2 278.4C304 266.4 300.4 253.333 300.4 239.2C300.4 225.333 304.267 212.933 312 202C319.733 190.8 330.4 182 344 175.6C357.6 169.2 372.933 166 390 166C411.6 166 428.8 171.067 441.6 181.2C454.667 191.333 461.2 204.933 461.2 222C461.2 233.2 458.4 242.267 452.8 249.2C447.2 256.133 439.867 259.6 430.8 259.6C420.667 259.6 412.533 255.467 406.4 247.2C411.467 243.467 415.467 238.533 418.4 232.4C421.333 226.267 422.8 219.867 422.8 213.2C422.8 204.667 420.267 197.867 415.2 192.8C410.133 187.733 403.2 185.2 394.4 185.2C383.733 185.2 374.933 189.067 368 196.8C361.333 204.267 358 213.867 358 225.6C358 236.267 361.067 246.267 367.2 255.6C373.333 264.667 382.933 276.4 396 290.8C406.667 302.267 415.2 312.133 421.6 320.4C428.267 328.667 433.867 338.267 438.4 349.2C443.2 359.867 445.6 371.467 445.6 384C445.6 401.067 440.8 416.533 431.2 430.4C421.867 444.267 408.933 455.2 392.4 463.2C376.133 471.2 358 475.2 338 475.2Z"/>
</mask>
<path d="M338 475.2C321.2 475.2 306.4 472.267 293.6 466.4C280.8 460.533 270.933 452.4 264 442C257.067 431.333 253.6 419.067 253.6 405.2C253.6 393.467 256 382.8 260.8 373.2C265.867 363.6 272.533 356 280.8 350.4C289.333 344.8 298.667 342 308.8 342C318.133 342 326 344.4 332.4 349.2C338.8 353.733 342.8 360.133 344.4 368.4C330.533 368.4 319.467 372.133 311.2 379.6C302.933 386.8 298.8 396.667 298.8 409.2C298.8 420.667 302.267 429.867 309.2 436.8C316.133 443.733 325.333 447.2 336.8 447.2C350.933 447.2 362.533 442.533 371.6 433.2C380.933 423.6 385.6 411.6 385.6 397.2C385.6 384.667 382.133 372.8 375.2 361.6C368.267 350.4 357.867 336.8 344 320.8C329.6 304.267 318.667 290.133 311.2 278.4C304 266.4 300.4 253.333 300.4 239.2C300.4 225.333 304.267 212.933 312 202C319.733 190.8 330.4 182 344 175.6C357.6 169.2 372.933 166 390 166C411.6 166 428.8 171.067 441.6 181.2C454.667 191.333 461.2 204.933 461.2 222C461.2 233.2 458.4 242.267 452.8 249.2C447.2 256.133 439.867 259.6 430.8 259.6C420.667 259.6 412.533 255.467 406.4 247.2C411.467 243.467 415.467 238.533 418.4 232.4C421.333 226.267 422.8 219.867 422.8 213.2C422.8 204.667 420.267 197.867 415.2 192.8C410.133 187.733 403.2 185.2 394.4 185.2C383.733 185.2 374.933 189.067 368 196.8C361.333 204.267 358 213.867 358 225.6C358 236.267 361.067 246.267 367.2 255.6C373.333 264.667 382.933 276.4 396 290.8C406.667 302.267 415.2 312.133 421.6 320.4C428.267 328.667 433.867 338.267 438.4 349.2C443.2 359.867 445.6 371.467 445.6 384C445.6 401.067 440.8 416.533 431.2 430.4C421.867 444.267 408.933 455.2 392.4 463.2C376.133 471.2 358 475.2 338 475.2Z" fill="#487FFA"/>
<path d="M293.6 466.4L293.183 467.309L293.183 467.309L293.6 466.4ZM264 442L263.162 442.545L263.168 442.555L264 442ZM260.8 373.2L259.916 372.733L259.91 372.743L259.906 372.753L260.8 373.2ZM280.8 350.4L280.251 349.564L280.245 349.568L280.239 349.572L280.8 350.4ZM332.4 349.2L331.8 350L331.811 350.008L331.822 350.016L332.4 349.2ZM344.4 368.4V369.4H345.612L345.382 368.21L344.4 368.4ZM311.2 379.6L311.857 380.354L311.864 380.348L311.87 380.342L311.2 379.6ZM309.2 436.8L309.907 436.093L309.2 436.8ZM371.6 433.2L370.883 432.503L370.883 432.503L371.6 433.2ZM375.2 361.6L376.05 361.074L376.05 361.074L375.2 361.6ZM344 320.8L344.756 320.145L344.754 320.143L344 320.8ZM311.2 278.4L310.343 278.914L310.349 278.926L310.356 278.937L311.2 278.4ZM312 202L312.816 202.577L312.823 202.568L312 202ZM344 175.6L344.426 176.505L344.426 176.505L344 175.6ZM441.6 181.2L440.979 181.984L440.987 181.99L441.6 181.2ZM452.8 249.2L452.022 248.572L452.022 248.572L452.8 249.2ZM406.4 247.2L405.807 246.395L404.999 246.99L405.597 247.796L406.4 247.2ZM418.4 232.4L417.498 231.969L417.498 231.969L418.4 232.4ZM368 196.8L367.255 196.132L367.254 196.134L368 196.8ZM367.2 255.6L366.364 256.149L366.372 256.16L367.2 255.6ZM396 290.8L395.259 291.472L395.268 291.481L396 290.8ZM421.6 320.4L420.809 321.012L420.815 321.02L420.822 321.028L421.6 320.4ZM438.4 349.2L437.476 349.583L437.482 349.597L437.488 349.61L438.4 349.2ZM431.2 430.4L430.378 429.831L430.37 429.842L431.2 430.4ZM392.4 463.2L391.964 462.3L391.959 462.303L392.4 463.2ZM338 475.2V474.2C321.316 474.2 306.663 471.287 294.017 465.491L293.6 466.4L293.183 467.309C306.137 473.246 321.084 476.2 338 476.2V475.2ZM293.6 466.4L294.017 465.491C281.363 459.692 271.65 451.672 264.832 441.445L264 442L263.168 442.555C270.217 453.128 280.237 461.375 293.183 467.309L293.6 466.4ZM264 442L264.838 441.455C258.02 430.965 254.6 418.891 254.6 405.2H253.6H252.6C252.6 419.242 256.113 431.702 263.162 442.545L264 442ZM253.6 405.2H254.6C254.6 393.607 256.97 383.096 261.694 373.647L260.8 373.2L259.906 372.753C255.03 382.504 252.6 393.326 252.6 405.2H253.6ZM260.8 373.2L261.684 373.667C266.681 364.199 273.242 356.728 281.361 351.228L280.8 350.4L280.239 349.572C271.825 355.272 265.052 363.001 259.916 372.733L260.8 373.2ZM280.8 350.4L281.349 351.236C289.72 345.742 298.863 343 308.8 343V342V341C298.47 341 288.946 343.858 280.251 349.564L280.8 350.4ZM308.8 342V343C317.954 343 325.601 345.351 331.8 350L332.4 349.2L333 348.4C326.399 343.449 318.312 341 308.8 341V342ZM332.4 349.2L331.822 350.016C337.995 354.389 341.863 360.556 343.418 368.59L344.4 368.4L345.382 368.21C343.737 359.711 339.605 353.078 332.978 348.384L332.4 349.2ZM344.4 368.4V367.4C330.349 367.4 319.022 371.187 310.53 378.858L311.2 379.6L311.87 380.342C319.911 373.079 330.718 369.4 344.4 369.4V368.4ZM311.2 379.6L310.543 378.846C302.026 386.264 297.8 396.424 297.8 409.2H298.8H299.8C299.8 396.91 303.841 387.336 311.857 380.354L311.2 379.6ZM298.8 409.2H297.8C297.8 420.883 301.34 430.355 308.493 437.507L309.2 436.8L309.907 436.093C303.193 429.379 299.8 420.45 299.8 409.2H298.8ZM309.2 436.8L308.493 437.507C315.645 444.66 325.117 448.2 336.8 448.2V447.2V446.2C325.55 446.2 316.621 442.807 309.907 436.093L309.2 436.8ZM336.8 447.2V448.2C351.178 448.2 363.045 443.442 372.317 433.897L371.6 433.2L370.883 432.503C362.022 441.625 350.689 446.2 336.8 446.2V447.2ZM371.6 433.2L372.317 433.897C381.846 424.095 386.6 411.839 386.6 397.2H385.6H384.6C384.6 411.361 380.02 423.105 370.883 432.503L371.6 433.2ZM385.6 397.2H386.6C386.6 384.471 383.076 372.423 376.05 361.074L375.2 361.6L374.35 362.126C381.19 373.177 384.6 384.862 384.6 397.2H385.6ZM375.2 361.6L376.05 361.074C369.077 349.81 358.639 336.164 344.756 320.145L344 320.8L343.244 321.455C357.094 337.436 367.456 350.99 374.35 362.126L375.2 361.6ZM344 320.8L344.754 320.143C330.371 303.629 319.473 289.537 312.044 277.863L311.2 278.4L310.356 278.937C317.861 290.729 328.83 304.905 343.246 321.457L344 320.8ZM311.2 278.4L312.057 277.885C304.952 266.043 301.4 253.154 301.4 239.2H300.4H299.4C299.4 253.513 303.048 266.757 310.343 278.914L311.2 278.4ZM300.4 239.2H301.4C301.4 225.532 305.207 213.336 312.816 202.577L312 202L311.184 201.423C303.326 212.531 299.4 225.134 299.4 239.2H300.4ZM312 202L312.823 202.568C320.446 191.528 330.968 182.838 344.426 176.505L344 175.6L343.574 174.695C329.832 181.162 319.021 190.072 311.177 201.432L312 202ZM344 175.6L344.426 176.505C357.876 170.175 373.061 167 390 167V166V165C372.806 165 357.324 168.224 343.574 174.695L344 175.6ZM390 166V167C411.448 167 428.406 172.03 440.979 181.984L441.6 181.2L442.221 180.416C429.194 170.103 411.752 165 390 165V166ZM441.6 181.2L440.987 181.99C453.801 191.927 460.2 205.231 460.2 222H461.2H462.2C462.2 204.636 455.533 190.74 442.213 180.41L441.6 181.2ZM461.2 222H460.2C460.2 233.031 457.445 241.858 452.022 248.572L452.8 249.2L453.578 249.828C459.355 242.675 462.2 233.369 462.2 222H461.2ZM452.8 249.2L452.022 248.572C446.616 255.265 439.571 258.6 430.8 258.6V259.6V260.6C440.163 260.6 447.784 257.001 453.578 249.828L452.8 249.2ZM430.8 259.6V258.6C420.989 258.6 413.151 254.621 407.203 246.604L406.4 247.2L405.597 247.796C411.915 256.312 420.344 260.6 430.8 260.6V259.6ZM406.4 247.2L406.993 248.005C412.202 244.167 416.304 239.101 419.302 232.831L418.4 232.4L417.498 231.969C414.629 237.966 410.731 242.767 405.807 246.395L406.4 247.2ZM418.4 232.4L419.302 232.831C422.299 226.566 423.8 220.019 423.8 213.2H422.8H421.8C421.8 219.714 420.368 225.967 417.498 231.969L418.4 232.4ZM422.8 213.2H423.8C423.8 204.456 421.197 197.382 415.907 192.093L415.2 192.8L414.493 193.507C419.337 198.351 421.8 204.878 421.8 213.2H422.8ZM415.2 192.8L415.907 192.093C410.612 186.798 403.401 184.2 394.4 184.2V185.2V186.2C402.999 186.2 409.655 188.669 414.493 193.507L415.2 192.8ZM394.4 185.2V184.2C383.458 184.2 374.384 188.181 367.255 196.132L368 196.8L368.745 197.468C375.482 189.952 384.009 186.2 394.4 186.2V185.2ZM368 196.8L367.254 196.134C360.396 203.815 357 213.666 357 225.6H358H359C359 214.067 362.27 204.719 368.746 197.466L368 196.8ZM358 225.6H357C357 236.471 360.129 246.661 366.364 256.149L367.2 255.6L368.036 255.051C362.004 245.872 359 236.062 359 225.6H358ZM367.2 255.6L366.372 256.16C372.544 265.285 382.181 277.059 395.259 291.472L396 290.8L396.741 290.128C383.685 275.741 374.122 264.048 368.028 255.04L367.2 255.6ZM396 290.8L395.268 291.481C405.923 302.935 414.434 312.778 420.809 321.012L421.6 320.4L422.391 319.788C415.966 311.489 407.41 301.598 396.732 290.119L396 290.8ZM421.6 320.4L420.822 321.028C427.422 329.212 432.975 338.728 437.476 349.583L438.4 349.2L439.324 348.817C434.758 337.806 429.111 328.121 422.378 319.772L421.6 320.4ZM438.4 349.2L437.488 349.61C442.226 360.139 444.6 371.598 444.6 384H445.6H446.6C446.6 371.335 444.174 359.594 439.312 348.79L438.4 349.2ZM445.6 384H444.6C444.6 400.866 439.861 416.133 430.378 429.831L431.2 430.4L432.022 430.969C441.739 416.933 446.6 401.267 446.6 384H445.6ZM431.2 430.4L430.37 429.842C421.145 443.547 408.355 454.369 391.964 462.3L392.4 463.2L392.836 464.1C409.512 456.031 422.588 444.986 432.03 430.958L431.2 430.4ZM392.4 463.2L391.959 462.303C375.843 470.228 357.863 474.2 338 474.2V475.2V476.2C358.137 476.2 376.424 472.172 392.841 464.097L392.4 463.2Z" fill="black" mask="url(#path-6-outside-3_1_23)"/>
</g>
<defs>
<filter id="filter0_d_1_23" x="28.6" y="99" width="216.4" height="316.4" filterUnits="userSpaceOnUse" color-interpolation-filters="sRGB">
<feFlood flood-opacity="0" result="BackgroundImageFix"/>
<feColorMatrix in="SourceAlpha" type="matrix" values="0 0 0 0 0 0 0 0 0 0 0 0 0 0 0 0 0 0 127 0" result="hardAlpha"/>
<feOffset dy="4"/>
<feGaussianBlur stdDeviation="2"/>
<feComposite in2="hardAlpha" operator="out"/>
<feColorMatrix type="matrix" values="0 0 0 0 0 0 0 0 0 0 0 0 0 0 0 0 0 0 0.25 0"/>
<feBlend mode="normal" in2="BackgroundImageFix" result="effect1_dropShadow_1_23"/>
<feBlend mode="normal" in="SourceGraphic" in2="effect1_dropShadow_1_23" result="shape"/>
</filter>
<filter id="filter1_d_1_23" x="38.6" y="99" width="216.4" height="316.4" filterUnits="userSpaceOnUse" color-interpolation-filters="sRGB">
<feFlood flood-opacity="0" result="BackgroundImageFix"/>
<feColorMatrix in="SourceAlpha" type="matrix" values="0 0 0 0 0 0 0 0 0 0 0 0 0 0 0 0 0 0 127 0" result="hardAlpha"/>
<feOffset dy="4"/>
<feGaussianBlur stdDeviation="2"/>
<feComposite in2="hardAlpha" operator="out"/>
<feColorMatrix type="matrix" values="0 0 0 0 0 0 0 0 0 0 0 0 0 0 0 0 0 0 0.25 0"/>
<feBlend mode="normal" in2="BackgroundImageFix" result="effect1_dropShadow_1_23"/>
<feBlend mode="normal" in="SourceGraphic" in2="effect1_dropShadow_1_23" result="shape"/>
</filter>
<filter id="filter2_d_1_23" x="248.6" y="165" width="217.6" height="319.2" filterUnits="userSpaceOnUse" color-interpolation-filters="sRGB">
<feFlood flood-opacity="0" result="BackgroundImageFix"/>
<feColorMatrix in="SourceAlpha" type="matrix" values="0 0 0 0 0 0 0 0 0 0 0 0 0 0 0 0 0 0 127 0" result="hardAlpha"/>
<feOffset dy="4"/>
<feGaussianBlur stdDeviation="2"/>
<feComposite in2="hardAlpha" operator="out"/>
<feColorMatrix type="matrix" values="0 0 0 0 0 0 0 0 0 0 0 0 0 0 0 0 0 0 0.25 0"/>
<feBlend mode="normal" in2="BackgroundImageFix" result="effect1_dropShadow_1_23"/>
<feBlend mode="normal" in="SourceGraphic" in2="effect1_dropShadow_1_23" result="shape"/>
</filter>
</defs>
</svg>
